<svg xmlns="http://www.w3.org/2000/svg" xmlns:xlink="http://www.w3.org/1999/xlink" version="1.1" width="1090" height="450" viewBox="0 0 1090 450" xml:space="preserve">
<desc>Created with Fabric.js 5.2.4</desc>
<defs>
</defs>
<rect x="0" y="0" width="100%" height="100%" fill="transparent"></rect>
<g transform="matrix(1 0 0 1 545 225)" id="d9bf95d2-f0eb-434a-b11c-18b373fa0e2b"  >
<rect style="stroke: none; stroke-width: 1; stroke-dasharray: none; stroke-linecap: butt; stroke-dashoffset: 0; stroke-linejoin: miter; stroke-miterlimit: 4; fill: rgb(255,255,255); fill-rule: nonzero; opacity: 1; visibility: hidden;" vector-effect="non-scaling-stroke"  x="-545" y="-225" rx="0" ry="0" width="1090" height="450" />
</g>
<g transform="matrix(0 0 0 0 0 0)" id="d95dc3b9-47f2-4330-8c3d-165ce0369c32"  >
</g>
<g transform="matrix(0.85 0 0 0.85 229.95 225)"  >
<g style=""   >
		<g transform="matrix(1 0 0 1 -196.08 -14.58)" id="SVGRepo_iconCarrier"  >
<polygon style="stroke: none; stroke-width: 1; stroke-dasharray: none; stroke-linecap: butt; stroke-dashoffset: 0; stroke-linejoin: miter; stroke-miterlimit: 4; fill: rgb(2,122,205); fill-rule: nonzero; opacity: 1;" vector-effect="non-scaling-stroke"  points="39.14,2.1 24.35,34.78 -11.34,31.25 -39.14,-16.9 -8.18,-34.78 " />
</g>
		<g transform="matrix(1 0 0 1 32.75 -45.32)"  >
<path style="stroke: none; stroke-width: 1; stroke-dasharray: none; stroke-linecap: butt; stroke-dashoffset: 0; stroke-linejoin: miter; stroke-miterlimit: 4; fill: rgb(62,175,245); fill-rule: nonzero; opacity: 1;" vector-effect="non-scaling-stroke"  transform=" translate(-288.74, -210.68)" d="M 80.699 328.308 L 258.783 299.674 L 464.658 180.81199999999998 C 495.385 163.07199999999997 505.914 123.77999999999999 488.173 93.05299999999998 L 488.173 93.05299999999998 L 285.037 186.2 L 80.699 328.308 z" stroke-linecap="round" />
</g>
		<g transform="matrix(1 0 0 1 12.38 -61.39)"  >
<path style="stroke: none; stroke-width: 1; stroke-dasharray: none; stroke-linecap: butt; stroke-dashoffset: 0; stroke-linejoin: miter; stroke-miterlimit: 4; fill: rgb(122,205,255); fill-rule: nonzero; opacity: 1;" vector-effect="non-scaling-stroke"  transform=" translate(-268.37, -194.61)" d="M 488.172 93.052 C 470.432 62.325 431.14000000000004 51.79600000000001 400.413 69.537 L 48.576 272.671 L 80.69800000000001 328.308 L 80.69800000000001 328.308 L 203 257.697 L 237.981 213.368 L 310.89300000000003 195.404 L 488.172 93.052 L 488.172 93.052 z" stroke-linecap="round" />
</g>
		<g transform="matrix(-0.87 0.5 -0.5 -0.87 104.44 -94.7)" id="SVGRepo_iconCarrier"  >
<rect style="stroke: none; stroke-width: 1; stroke-dasharray: none; stroke-linecap: butt; stroke-dashoffset: 0; stroke-linejoin: miter; stroke-miterlimit: 4; fill: rgb(255,194,34); fill-rule: nonzero; opacity: 1;" vector-effect="non-scaling-stroke"  x="-16.475" y="-15.675" rx="0" ry="0" width="32.95" height="31.35" />
</g>
		<g transform="matrix(-0.87 0.5 -0.5 -0.87 153.62 -123.09)" id="SVGRepo_iconCarrier"  >
<rect style="stroke: none; stroke-width: 1; stroke-dasharray: none; stroke-linecap: butt; stroke-dashoffset: 0; stroke-linejoin: miter; stroke-miterlimit: 4; fill: rgb(255,194,34); fill-rule: nonzero; opacity: 1;" vector-effect="non-scaling-stroke"  x="-16.475" y="-15.675" rx="0" ry="0" width="32.95" height="31.35" />
</g>
		<g transform="matrix(1 0 0 1 -26.63 -51.57)" id="SVGRepo_iconCarrier"  >
<polygon style="stroke: none; stroke-width: 1; stroke-dasharray: none; stroke-linecap: butt; stroke-dashoffset: 0; stroke-linejoin: miter; stroke-miterlimit: 4; fill: rgb(2,122,205); fill-rule: nonzero; opacity: 1;" vector-effect="non-scaling-stroke"  points="-81.53,-10.32 -26.37,53.27 81.53,-9.02 -7.14,-53.27 -56.24,-49.05 " />
</g>
		<g transform="matrix(1 0 0 1 -98.54 -105.49)" id="SVGRepo_iconCarrier"  >
<polygon style="stroke: none; stroke-width: 1; stroke-dasharray: none; stroke-linecap: butt; stroke-dashoffset: 0; stroke-linejoin: miter; stroke-miterlimit: 4; fill: rgb(62,175,245); fill-rule: nonzero; opacity: 1;" vector-effect="non-scaling-stroke"  points="-23.89,-43.6 -64.77,-20 -9.61,43.6 64.77,0.65 " />
</g>
		<g transform="matrix(1 0 0 1 117.55 179.4)" id="SVGRepo_iconCarrier"  >
<polygon style="stroke: none; stroke-width: 1; stroke-dasharray: none; stroke-linecap: butt; stroke-dashoffset: 0; stroke-linejoin: miter; stroke-miterlimit: 4; fill: rgb(62,175,245); fill-rule: nonzero; opacity: 1;" vector-effect="non-scaling-stroke"  points="138.45,-15.67 -117.55,-15.67 -138.45,0 -117.55,15.67 138.45,15.67 " />
</g>
		<g transform="matrix(1 0 0 1 -128 179.41)" id="SVGRepo_iconCarrier"  >
<rect style="stroke: none; stroke-width: 1; stroke-dasharray: none; stroke-linecap: butt; stroke-dashoffset: 0; stroke-linejoin: miter; stroke-miterlimit: 4; fill: rgb(122,205,255); fill-rule: nonzero; opacity: 1;" vector-effect="non-scaling-stroke"  x="-128" y="-15.675" rx="0" ry="0" width="256" height="31.35" />
</g>
</g>
</g>
<g transform="matrix(0 0 0 0 225.71 4.95)"  >
<g style=""   >
</g>
</g>
<g transform="matrix(1 0 0 1 784.68 225)" style="filter: url(#SVGID_119);" id="c6a940fe-ce14-4bb0-8321-76d18debdf84"  >
<filter id="SVGID_119" y="-20%" height="140%" x="-20%" width="140%" >
	<feGaussianBlur in="SourceAlpha" stdDeviation="0"></feGaussianBlur>
	<feOffset dx="0" dy="0" result="oBlur" ></feOffset>
	<feFlood flood-color="rgb(0,0,0)" flood-opacity="1"/>
	<feComposite in2="oBlur" operator="in" />
	<feMerge>
		<feMergeNode></feMergeNode>
		<feMergeNode in="SourceGraphic"></feMergeNode>
	</feMerge>
</filter>
		<text xml:space="preserve" font-family="Consolas" font-size="131" font-style="bold" font-weight="900" style="stroke: none; stroke-width: 1; stroke-dasharray: none; stroke-linecap: butt; stroke-dashoffset: 0; stroke-linejoin: miter; stroke-miterlimit: 4; fill: rgb(0, 0, 0); fill-rule: nonzero; opacity: 1; white-space: pre;" ><tspan x="-289.64" y="41.15" >KTTravel</tspan></text>
</g>
</svg>